<svg width="50" height="51" viewBox="0 0 50 51" fill="none" xmlns="http://www.w3.org/2000/svg">
<rect y="0.5" width="50" height="50" rx="10" fill="url(#paint0_linear_1418_93)"/>
<g clip-path="url(#clip0_1418_93)">
<path d="M32 33.5H18V34.5C18 34.7652 17.8946 35.0196 17.7071 35.2071C17.5196 35.3946 17.2652 35.5 17 35.5H16C15.7348 35.5 15.4804 35.3946 15.2929 35.2071C15.1054 35.0196 15 34.7652 15 34.5V25.5L17.513 18.798C17.6559 18.4167 17.9119 18.0881 18.2466 17.8562C18.5813 17.6242 18.9788 17.4999 19.386 17.5H30.614C31.0212 17.4999 31.4187 17.6242 31.7534 17.8562C32.0881 18.0881 32.3441 18.4167 32.487 18.798L35 25.5V34.5C35 34.7652 34.8946 35.0196 34.7071 35.2071C34.5196 35.3946 34.2652 35.5 34 35.5H33C32.7348 35.5 32.4804 35.3946 32.2929 35.2071C32.1054 35.0196 32 34.7652 32 34.5V33.5ZM17.136 25.5H32.864L30.614 19.5H19.386L17.136 25.5ZM19.5 30.5C19.8978 30.5 20.2794 30.342 20.5607 30.0607C20.842 29.7794 21 29.3978 21 29C21 28.6022 20.842 28.2206 20.5607 27.9393C20.2794 27.658 19.8978 27.5 19.5 27.5C19.1022 27.5 18.7206 27.658 18.4393 27.9393C18.158 28.2206 18 28.6022 18 29C18 29.3978 18.158 29.7794 18.4393 30.0607C18.7206 30.342 19.1022 30.5 19.5 30.5ZM30.5 30.5C30.8978 30.5 31.2794 30.342 31.5607 30.0607C31.842 29.7794 32 29.3978 32 29C32 28.6022 31.842 28.2206 31.5607 27.9393C31.2794 27.658 30.8978 27.5 30.5 27.5C30.1022 27.5 29.7206 27.658 29.4393 27.9393C29.158 28.2206 29 28.6022 29 29C29 29.3978 29.158 29.7794 29.4393 30.0607C29.7206 30.342 30.1022 30.5 30.5 30.5Z" fill="#6E17DD" fill-opacity="0.7"/>
</g>
<defs>
<linearGradient id="paint0_linear_1418_93" x1="25" y1="0.5" x2="25" y2="50.5" gradientUnits="userSpaceOnUse">
<stop stop-color="#8D4BE3" stop-opacity="0.4"/>
<stop offset="1" stop-color="white" stop-opacity="0"/>
</linearGradient>
<clipPath id="clip0_1418_93">
<rect width="24" height="24" fill="white" transform="translate(13 13.5)"/>
</clipPath>
</defs>
</svg>
