<svg width="198" height="41" viewBox="0 0 198 41" fill="none" xmlns="http://www.w3.org/2000/svg">
<g clip-path="url(#clip0_1418_222)">
<path d="M175.497 32.7393C181.445 32.7393 186.436 28.8247 187.842 23.5329C187.85 23.4946 187.857 23.4548 187.857 23.4145C187.857 23.0926 187.585 22.8321 187.252 22.8321H182.114C181.87 22.8321 181.659 22.9707 181.564 23.1722L181.563 23.1714C180.507 25.3774 178.19 26.9109 175.497 26.9109C171.811 26.9109 168.821 24.0412 168.821 20.5003C168.821 16.9601 171.811 14.0896 175.497 14.0896C178.19 14.0896 180.507 15.6231 181.563 17.8295L181.564 17.8285C181.659 18.0283 181.87 18.169 182.114 18.169H187.252C187.585 18.169 187.857 17.9081 187.857 17.586C187.857 17.5458 187.85 17.5084 187.842 17.4696C186.437 12.178 181.445 8.262 175.497 8.262C168.46 8.262 162.752 13.743 162.752 20.5003C162.752 27.2597 168.46 32.7393 175.497 32.7393ZM197.393 8.84454V31.5732C197.393 31.8944 197.121 32.1556 196.787 32.1556H191.933C191.598 32.1556 191.326 31.8944 191.326 31.5732V8.84454H197.393ZM194.359 0.685776C192.349 0.685776 190.719 2.25177 190.719 4.18261C190.719 6.11386 192.349 7.67945 194.359 7.67945C196.371 7.67945 198 6.11386 198 4.18261C198 2.25177 196.371 0.685776 194.359 0.685776ZM137.595 18.169C138.659 14.4741 142.183 11.7588 146.369 11.7588C150.555 11.7588 154.077 14.4741 155.141 18.169H137.595ZM146.369 8.262C139.331 8.262 133.625 13.741 133.625 20.5003C133.625 27.2589 139.331 32.7393 146.369 32.7393C151.345 32.7393 155.65 29.9995 157.749 26.0069C157.791 25.9274 157.814 25.8399 157.814 25.745C157.814 25.4225 157.543 25.1626 157.207 25.1626H154.391C154.191 25.1626 154.012 25.257 153.903 25.4023C152.264 27.7186 149.503 29.242 146.369 29.242C141.753 29.242 137.943 25.9421 137.349 21.6654H158.489C158.814 21.6654 159.078 21.4198 159.094 21.1122C159.106 20.9096 159.111 20.7054 159.111 20.5003C159.111 13.741 153.407 8.262 146.369 8.262ZM129.377 1.26851H126.95C126.614 1.26851 126.343 1.52958 126.343 1.85106V31.5732C126.343 31.8944 126.614 32.1556 126.95 32.1556H129.377C129.712 32.1556 129.985 31.8944 129.985 31.5732V1.85106C129.985 1.52958 129.712 1.26851 129.377 1.26851ZM122.095 25.1626H119.278C119.081 25.1626 118.907 25.2528 118.798 25.3914C117.162 27.7139 114.395 29.242 111.257 29.242C106.228 29.242 102.153 25.3282 102.153 20.5003C102.153 15.6722 106.228 11.7588 111.257 11.7588C114.395 11.7588 117.162 13.2872 118.798 15.609C118.909 15.7483 119.083 15.8382 119.278 15.8382H122.095C122.43 15.8382 122.702 15.5768 122.702 15.2555C122.702 15.1606 122.677 15.0725 122.635 14.9938C120.538 11.0016 116.23 8.262 111.257 8.262C104.218 8.262 98.5131 13.741 98.5131 20.5003C98.5131 27.2589 104.218 32.7393 111.257 32.7393C116.23 32.7393 120.538 29.9995 122.635 26.0069C122.677 25.9274 122.702 25.8399 122.702 25.745C122.702 25.4225 122.43 25.1626 122.095 25.1626ZM97.9145 8.27626C94.2422 8.44244 91.3094 10.1273 89.4098 12.7009V9.42629C89.4098 9.1062 89.1377 8.84454 88.8028 8.84454H86.3756C86.0403 8.84454 85.7691 9.1062 85.7691 9.42629V31.5732C85.7691 31.8944 86.0403 32.1556 86.3756 32.1556H88.8028C89.1377 32.1556 89.4098 31.8944 89.4098 31.5732V20.5003C89.4098 15.8685 93.1617 12.0789 97.9046 11.779C98.24 11.779 98.5131 11.5176 98.5131 11.1949V8.8588C98.5131 8.5393 98.2453 8.2822 97.9145 8.27626ZM82.1275 31.5732V8.84454H78.4862V31.5732C78.4862 31.8944 78.7588 32.1556 79.0936 32.1556H81.5205C81.8557 32.1556 82.1275 31.8944 82.1275 31.5732ZM82.7339 4.18261C82.7339 5.46991 81.6482 6.51377 80.3072 6.51377C78.9669 6.51377 77.8802 5.46991 77.8802 4.18261C77.8802 2.89511 78.9669 1.85106 80.3072 1.85106C81.6482 1.85106 82.7339 2.89511 82.7339 4.18261ZM74.2384 25.1626H71.4219C71.2247 25.1626 71.0525 25.2528 70.9407 25.3914C69.3058 27.7139 66.5391 29.242 63.3996 29.242C58.3716 29.242 54.2968 25.3282 54.2968 20.5003C54.2968 15.6722 58.3716 11.7588 63.3996 11.7588C66.5391 11.7588 69.3058 13.2872 70.942 15.609C71.0525 15.7483 71.2264 15.8382 71.4219 15.8382H74.2384C74.5742 15.8382 74.8469 15.5768 74.8469 15.2555C74.8469 15.1606 74.8205 15.0725 74.7803 14.9938C72.6817 11.0016 68.3735 8.262 63.3996 8.262C56.3613 8.262 50.655 13.741 50.655 20.5003C50.655 27.2589 56.3613 32.7393 63.3996 32.7393C68.3735 32.7393 72.6817 29.9995 74.7803 26.0069C74.8205 25.9274 74.8469 25.8399 74.8469 25.745C74.8469 25.4225 74.5742 25.1626 74.2384 25.1626ZM20.0872 0.613079C10.4207 0.613079 2.30895 6.97351 0.0259423 15.5726C0.0105542 15.6352 0 15.699 0 15.7655C0 16.2884 0.441585 16.7123 0.986213 16.7123H9.33248C9.72993 16.7123 10.0698 16.4843 10.2269 16.1593L10.2282 16.1597C11.9432 12.5747 15.7097 10.0825 20.0872 10.0825C26.076 10.0825 30.9336 14.7476 30.9336 20.5003C30.9336 26.2533 26.076 30.9184 20.0872 30.9184C15.7097 30.9184 11.9432 28.4262 10.2282 24.8402L10.2269 24.8422C10.0698 24.5163 9.72993 24.2889 9.33248 24.2889H0.986213C0.441585 24.2889 0 24.7116 0 25.2359C0 25.3008 0.0105542 25.3625 0.0245728 25.4246C2.30687 34.0242 10.4189 40.3872 20.0872 40.3872C31.5224 40.3872 40.7944 31.4823 40.7944 20.5003C40.7944 9.51721 31.5224 0.613079 20.0872 0.613079ZM15.1563 20.5003C15.1563 17.8859 17.3643 15.7655 20.0872 15.7655C22.8096 15.7655 25.0169 17.8859 25.0169 20.5003C25.0169 23.115 22.8096 25.2359 20.0872 25.2359C17.3643 25.2359 15.1563 23.115 15.1563 20.5003Z" fill="#A4A4A4" fill-opacity="0.36"/>
</g>
<defs>
<clipPath id="clip0_1418_222">
<rect width="198" height="39.7737" fill="white" transform="translate(0 0.613129)"/>
</clipPath>
</defs>
</svg>
