<svg width="50" height="51" viewBox="0 0 50 51" fill="none" xmlns="http://www.w3.org/2000/svg">
<circle cx="25" cy="25.5" r="25" fill="url(#paint0_linear_1418_70)"/>
<g clip-path="url(#clip0_1418_70)">
<path d="M22.33 25H24.5C25.6935 25 26.8381 25.4741 27.682 26.318C28.5259 27.1619 29 28.3065 29 29.5H21.999L22 30.5H30V29.5C29.9968 28.436 29.6894 27.395 29.114 26.5H32C32.9453 26.4997 33.8712 26.7674 34.6705 27.272C35.4698 27.7767 36.1097 28.4975 36.516 29.351C34.151 32.472 30.322 34.5 26 34.5C23.239 34.5 20.9 33.91 19 32.875V23.571C20.2166 23.7453 21.3655 24.2383 22.33 25ZM18 32.5C18 32.7652 17.8946 33.0196 17.7071 33.2071C17.5196 33.3946 17.2652 33.5 17 33.5H15C14.7348 33.5 14.4804 33.3946 14.2929 33.2071C14.1054 33.0196 14 32.7652 14 32.5V23.5C14 23.2348 14.1054 22.9804 14.2929 22.7929C14.4804 22.6054 14.7348 22.5 15 22.5H17C17.2652 22.5 17.5196 22.6054 17.7071 22.7929C17.8946 22.9804 18 23.2348 18 23.5V32.5ZM31 18.5C31.7956 18.5 32.5587 18.8161 33.1213 19.3787C33.6839 19.9413 34 20.7044 34 21.5C34 22.2956 33.6839 23.0587 33.1213 23.6213C32.5587 24.1839 31.7956 24.5 31 24.5C30.2044 24.5 29.4413 24.1839 28.8787 23.6213C28.3161 23.0587 28 22.2956 28 21.5C28 20.7044 28.3161 19.9413 28.8787 19.3787C29.4413 18.8161 30.2044 18.5 31 18.5ZM24 15.5C24.7956 15.5 25.5587 15.8161 26.1213 16.3787C26.6839 16.9413 27 17.7044 27 18.5C27 19.2956 26.6839 20.0587 26.1213 20.6213C25.5587 21.1839 24.7956 21.5 24 21.5C23.2044 21.5 22.4413 21.1839 21.8787 20.6213C21.3161 20.0587 21 19.2956 21 18.5C21 17.7044 21.3161 16.9413 21.8787 16.3787C22.4413 15.8161 23.2044 15.5 24 15.5Z" fill="#DD17CA" fill-opacity="0.7"/>
</g>
<defs>
<linearGradient id="paint0_linear_1418_70" x1="25" y1="0.5" x2="25" y2="50.5" gradientUnits="userSpaceOnUse">
<stop stop-color="#D684CE" stop-opacity="0.4"/>
<stop offset="1" stop-color="#CBDAD9" stop-opacity="0"/>
</linearGradient>
<clipPath id="clip0_1418_70">
<rect width="24" height="24" fill="white" transform="translate(13 13.5)"/>
</clipPath>
</defs>
</svg>
