<svg width="198" height="41" viewBox="0 0 198 41" fill="none" xmlns="http://www.w3.org/2000/svg">
<path d="M12.5433 39.7739H5.08246V20.4703H0V14.1855H5.08226V9.71334C5.08226 4.41387 7.33016 0.613129 14.7708 0.613129C16.3445 0.613129 18.8151 0.942342 18.8151 0.942342V6.77817H16.2202C13.5761 6.77817 12.5437 7.61291 12.5437 9.92069V14.1855H18.7161L18.1665 20.4703H12.5435L12.5433 39.7739ZM29.6624 13.6832C29.5537 13.6832 29.4418 13.6873 29.3311 13.6902C22.413 13.6902 19.2478 19.0912 19.2478 26.758C19.2478 36.4162 23.3535 40.2816 29.3852 40.2816C32.8361 40.2816 35.1034 38.7741 36.4815 35.9608V39.7765H43.5778V14.1881H36.4815V18.1233C35.3563 15.5915 33.0256 13.7132 29.6624 13.6832ZM31.4668 19.7297C34.3724 19.7297 36.1164 21.8332 36.1164 25.4112L36.1231 29.0656C36.1231 31.4772 34.6827 34.2985 31.4668 34.2985C26.5227 34.2985 26.6548 28.7578 26.6548 26.9124C26.6548 20.7048 29.289 19.7297 31.4668 19.7297ZM46.4437 26.9837C46.4437 23.8742 46.3003 13.6999 59.0721 13.6999C64.1989 13.6999 66.3397 15.3917 66.3397 15.3917L64.6191 20.9306C64.6191 20.9306 62.4811 19.7087 59.6952 19.7087C56.1271 19.7087 53.8503 21.8556 53.8503 25.6329L53.8542 28.3414C53.8542 31.971 56.051 34.3938 59.7025 34.3938C62.2405 34.3938 64.5797 33.1604 64.5797 33.1604L66.2959 38.5836C66.2959 38.5836 64.3385 40.2862 59.1079 40.2862C46.9472 40.2862 46.4439 31.1578 46.4439 26.9837H46.4437ZM107.948 13.6902C114.866 13.6902 118.081 19.0912 118.081 26.758C118.081 36.4162 113.976 40.2816 107.944 40.2816C104.493 40.2816 101.942 38.7743 100.564 35.9608V39.7765L93.5568 39.7737V1.39116L100.996 0.717729V17.7766C102.07 14.7921 105.599 13.6902 107.948 13.6902H107.948ZM105.862 19.7297C102.957 19.7297 100.996 21.8332 100.996 25.4112L100.99 29.0656C100.985 31.4772 102.347 34.2985 105.862 34.2985C110.806 34.2985 110.674 28.7578 110.674 26.9124C110.674 20.7048 108.04 19.7297 105.862 19.7297ZM79.2481 13.7114C71.4014 13.7114 67.2588 18.1516 67.2588 26.0425V27.5085C67.2588 37.7501 73.0763 40.3869 80.0118 40.3869C86.7531 40.3869 89.8045 38.4299 89.8045 38.4299L88.4123 33.2184C88.4123 33.2184 84.823 34.8034 80.9038 34.8034C76.8408 34.8034 75.0935 33.7286 74.6456 29.6761H90.3993V25.4952C90.3993 16.9357 85.75 13.7112 79.2479 13.7112L79.2481 13.7114ZM79.4372 18.9299C82.1534 18.9299 83.9134 20.6585 83.8168 24.6677H74.6593C74.8181 20.4481 76.7161 18.9301 79.4372 18.9301V18.9299ZM132.916 13.6762C124.858 13.6762 120.616 18.3892 120.616 26.8351C120.616 38.4233 127.928 40.2886 132.929 40.2886C140.251 40.2886 145.121 36.1977 145.121 26.9403C145.121 17.305 139.645 13.6762 132.916 13.6762ZM132.814 19.7506C136.358 19.7506 137.762 22.5029 137.762 25.6358V28.3293C137.762 32.1245 135.797 34.3196 132.801 34.3196C129.999 34.3196 128.03 32.2663 128.03 28.3293V25.6358C128.03 21.437 130.373 19.7506 132.814 19.7506ZM159.942 13.6762C151.884 13.6762 147.642 18.3892 147.642 26.8351C147.642 38.4233 154.955 40.2886 159.956 40.2886C167.277 40.2886 172.148 36.1977 172.148 26.9403C172.148 17.305 166.671 13.6762 159.942 13.6762ZM159.841 19.7506C163.384 19.7506 164.788 22.5029 164.788 25.6358V28.3293C164.788 32.1245 162.824 34.3196 159.828 34.3196C157.025 34.3196 155.056 32.2663 155.056 28.3293V25.6358C155.056 21.437 157.4 19.7506 159.841 19.7506ZM174.959 39.7739V1.39116L182.421 0.717729V26.4442L189.823 14.1855H197.703L189.981 26.8819L198 39.7739H190.098L182.421 27.256V39.7739H174.959Z" fill="#A4A4A4" fill-opacity="0.36"/>
</svg>
