<svg width="198" height="41" viewBox="0 0 198 41" fill="none" xmlns="http://www.w3.org/2000/svg">
<path fill-rule="evenodd" clip-rule="evenodd" d="M56.4925 0.613098H56.5749C56.987 0.613098 57.2343 1.23683 57.2343 2.0165V38.1928C57.2343 38.8166 56.987 39.4403 56.5749 39.4403C56.2453 39.4403 55.9156 38.9724 55.9156 38.1928V1.86057C55.9156 1.23683 56.1629 0.613098 56.4925 0.613098ZM38.4444 2.48472H50.8886C51.3008 2.48472 51.548 3.26439 51.548 3.88809C51.548 4.51183 51.3008 5.13557 50.8886 5.13557H39.1038V20.2609H49.7349C50.0645 20.2609 50.3942 20.7288 50.3942 21.5084C50.3942 22.1322 50.147 22.756 49.7349 22.756H39.1861V38.3492C39.1038 39.1289 38.774 39.7526 38.362 39.7526C37.95 39.7526 37.6204 39.1289 37.6204 38.3492V3.88809H37.7028C37.7028 3.10843 38.0324 2.48472 38.4444 2.48472ZM74.5414 13.7116C74.5414 12.9319 74.2116 12.4641 73.882 12.4641C73.4699 12.4641 73.2226 13.0879 73.2226 13.7116V28.8372C73.2226 33.9829 70.9975 38.0369 68.278 37.8811C65.3935 37.8811 63.7453 34.2946 63.7453 28.681V13.7116C63.7453 12.9319 63.4156 12.4641 63.086 12.4641C62.7564 12.4641 62.4266 13.0879 62.4266 13.7116V29.1489C62.4266 35.5421 64.5694 40.22 68.1131 40.22C70.2559 40.3761 72.3161 38.1931 73.3051 34.6066V38.5048C73.3051 39.2845 73.6348 39.7523 73.9644 39.7523C74.3765 39.7523 74.6238 39.1286 74.6238 38.5048H74.5414V13.7116ZM87.0678 13.8664C87.0678 14.4902 86.7382 14.9578 86.4086 14.9578H81.8758V32.2666C81.8758 36.1647 83.0297 37.5681 84.7603 37.5681C85.3372 37.5681 85.9141 37.4123 86.4086 37.1002C86.7382 37.1002 86.9854 37.5681 86.9854 38.1919C86.9854 38.6598 86.8207 39.1274 86.5733 39.2833C85.9141 39.7512 85.1723 39.907 84.5131 39.907C82.3703 39.907 80.5573 37.5681 80.5573 32.5783V14.9578H78.9915C78.6618 14.9578 78.3322 14.3342 78.3322 13.7105C78.3322 13.0868 78.6618 12.619 78.9915 12.619H80.5573V5.13421C80.5573 4.51048 80.8046 3.88677 81.1342 3.88677H81.2166C81.5462 3.88677 81.8758 4.51048 81.8758 5.13421V12.619H86.4086C86.7382 12.619 87.0678 13.2427 87.0678 13.8664ZM97.6165 14.9578C97.9461 14.9578 98.2757 14.4902 98.2757 13.8664C98.2757 13.2427 97.9461 12.619 97.6165 12.619H93.0837V5.13421C93.0837 4.51048 92.7541 3.88677 92.4245 3.88677H92.3421C92.0125 3.88677 91.7652 4.51048 91.7652 5.13421V12.619H90.1994C89.8697 12.619 89.5401 13.0868 89.5401 13.7105C89.5401 14.3342 89.8697 14.9578 90.1994 14.9578H91.7652V32.5783C91.7652 37.5681 93.5782 39.907 95.721 39.907C96.3802 39.907 97.122 39.7512 97.7812 39.2833C98.0286 39.1274 98.1934 38.6598 98.1934 38.1919C98.1934 37.5681 97.9461 37.1002 97.6165 37.1002C97.122 37.4123 96.5451 37.5681 95.9682 37.5681C94.2376 37.5681 93.0837 36.1647 93.0837 32.2666V14.9578H97.6165ZM100.749 26.0301C100.749 18.0773 103.633 11.8401 107.506 11.8401C111.545 11.8401 114.099 18.0773 114.099 26.0301C114.099 26.6535 113.77 27.2773 113.44 27.2773H102.232C102.479 33.9826 105.034 37.8808 107.836 37.8808C109.567 37.8808 111.297 36.4774 112.451 34.1385C112.534 33.9826 112.698 33.8264 112.863 33.8264C113.193 33.8264 113.523 34.4502 113.523 35.0739C113.523 35.386 113.44 35.6977 113.275 36.0098C111.874 38.9724 109.814 40.5317 107.754 40.3758C103.963 40.3758 100.749 34.7622 100.749 26.1859V26.0301ZM102.149 24.7819C102.397 18.8563 104.622 14.3344 107.424 14.3344C110.638 14.3344 112.368 19.3242 112.533 24.7819H102.149ZM119.456 20.4168C120.362 15.8948 122.587 12.6202 125.142 12.3083C125.554 12.3083 125.884 12.9321 125.884 13.8677C125.884 14.4914 125.637 15.2711 125.225 15.2711H125.142C122.093 15.8948 119.456 20.105 119.456 28.8372V38.8168C119.373 39.5965 119.126 40.0644 118.714 40.0644C118.384 40.0644 118.055 39.4406 118.055 38.8168V13.8677C118.137 13.088 118.384 12.6202 118.797 12.6202C119.126 12.6202 119.456 13.2439 119.456 13.8677V20.4168ZM147.641 10.9051C146.652 10.9051 145.828 12.1525 145.581 14.0237L143.191 28.5254L140.801 14.0237C140.554 12.1525 139.647 10.7492 138.576 10.7492H138.329C137.257 10.7492 136.351 11.9966 136.104 14.0237L133.714 28.3696L131.406 13.8678C131.159 12.1525 130.335 10.7492 129.346 10.7492H129.263C128.192 10.7492 127.368 12.4644 127.368 14.4915C127.368 15.1152 127.45 15.739 127.533 16.3624V16.3627L131.241 36.4779C131.489 38.5051 132.395 39.9085 133.549 40.0644H133.714C134.785 40.0644 135.692 38.661 136.021 36.6338L138.411 22.2881L140.801 36.6338C141.048 38.661 142.037 40.0644 143.109 40.0644H143.273C144.427 40.0644 145.416 38.661 145.663 36.4779L149.372 16.2069C149.455 15.739 149.536 15.1152 149.536 14.6475V14.4915C149.536 12.4644 148.712 10.9051 147.641 10.9051ZM153.41 12.3073C154.976 11.3717 156.541 10.748 158.189 10.9039C160.496 10.9039 162.145 12.1514 163.381 14.1785C164.535 16.6733 165.112 19.948 165.029 23.2227V36.0092C165.029 38.1922 164.122 39.9073 162.969 39.9073C161.898 39.9073 160.99 38.5039 160.909 36.4768C159.755 38.8157 158.107 40.2191 156.376 40.0632C153.657 40.0632 151.267 36.9447 151.267 31.3311C151.267 25.0937 153.738 22.131 157.283 22.131C158.519 22.131 159.755 22.443 160.909 23.2227V22.7548C160.909 19.3242 159.837 17.6091 157.694 17.6091C156.706 17.6091 155.717 17.7649 154.728 18.3887C154.563 18.5446 154.315 18.5446 154.151 18.5446C153.162 18.7004 152.338 17.297 152.338 15.426C152.338 14.0226 152.749 12.7751 153.41 12.3073ZM160.992 29.4601C160.992 32.5786 159.59 34.4499 157.613 34.294C156.294 34.294 155.306 33.0465 155.306 30.8635V30.7076C155.306 28.3684 156.459 26.8091 158.272 26.8091C159.179 26.8091 160.168 27.277 160.992 27.9008V29.4601ZM177.721 13.5559C177.968 11.8407 178.792 10.7492 179.698 10.7492C180.853 10.7492 181.76 12.4644 181.76 14.4915V14.6475C181.76 15.2711 181.677 15.8948 181.511 16.5186L177.062 36.6338C176.649 38.661 175.661 39.9085 174.589 40.0644H174.342C173.189 39.9085 172.282 38.5051 171.952 36.4779L167.337 16.3627C167.173 15.739 167.09 15.1152 167.09 14.4915C167.173 12.3085 168.078 10.7492 169.15 10.7492C170.139 10.7492 170.963 11.9966 171.21 13.7119L174.425 30.0847L177.721 13.5559ZM190.825 10.5934C186.458 10.5934 183.409 17.2985 183.409 25.4069V26.6544C183.573 34.4511 187.116 40.5323 191.237 40.0647C193.133 40.0647 194.946 38.973 196.429 36.6341C196.842 36.0103 197.006 35.2307 197.006 34.2952V34.139C197.006 32.4239 196.264 31.0205 195.359 31.0205C195.028 31.0205 194.615 31.1764 194.368 31.6443C193.463 32.8918 192.391 33.6714 191.319 33.5156C189.506 33.6714 187.941 31.3322 187.693 27.902H196.181C197.253 27.7458 198.077 26.0307 197.994 24.0035V23.3797C197.994 16.363 194.781 10.4374 190.825 10.5934ZM190.825 17.1415C189.093 17.1415 187.941 19.4804 187.61 23.2227H193.957C193.71 19.6362 192.555 17.1415 190.825 17.1415Z" fill="#A4A4A4" fill-opacity="0.36"/>
<path fill-rule="evenodd" clip-rule="evenodd" d="M23.2104 0.924653C37.6647 -1.72696 28.414 13.3248 23.917 17.5362C27.0006 20.4219 30.1484 24.4772 31.4976 29.0785C34.003 37.5014 27.8357 38.7491 23.2104 36.6434C18.1352 34.4598 13.6382 29.7804 10.6831 24.3213C9.84799 24.3213 8.94859 24.1652 8.11345 23.8534C9.78374 29.6245 10.4904 35.5516 10.0407 40.3869C10.0407 30.6383 6.25044 20.9677 0.789863 12.9349C-1.1374 10.1273 0.854105 8.02161 2.58864 10.7512C3.75628 12.728 4.82877 14.7852 5.80074 16.9124C7.66375 8.95748 16.9146 2.01649 23.2104 0.924653ZM21.1549 15.2743C23.9814 13.1686 32.5899 1.86027 24.5596 2.87412C19.9343 3.49803 14.3452 8.72327 12.0324 12.0768C15.2445 11.6088 18.5209 13.3246 21.1549 15.2743ZM11.9681 14.5727C14.1523 14.3388 16.5294 15.7426 18.3281 17.1464C16.5935 18.1603 14.6663 18.7841 12.6748 18.9401C9.71967 18.9401 9.14149 14.8847 11.9681 14.5727ZM13.1883 24.009C15.758 27.5185 19.2913 30.95 23.0816 32.1979C25.2658 32.8998 27.707 32.5878 26.8076 28.7664C25.9081 25.2569 23.5955 22.1373 21.347 19.7976C20.7045 20.3436 19.9979 20.8894 19.2913 21.2795C17.364 22.6052 15.3083 23.5411 13.1883 24.009Z" fill="#A4A4A4" fill-opacity="0.36"/>
</svg>
