<svg width="50" height="51" viewBox="0 0 50 51" fill="none" xmlns="http://www.w3.org/2000/svg">
<rect y="0.5" width="50" height="50" rx="10" fill="url(#paint0_linear_1418_289)"/>
<g clip-path="url(#clip0_1418_289)">
<path d="M33 33.5C33 33.7653 32.8946 34.0196 32.7071 34.2071C32.5196 34.3947 32.2652 34.5 32 34.5H18C17.7348 34.5 17.4804 34.3947 17.2929 34.2071C17.1054 34.0196 17 33.7653 17 33.5V24.5H14L24.327 15.112C24.5111 14.9445 24.7511 14.8517 25 14.8517C25.2489 14.8517 25.4889 14.9445 25.673 15.112L36 24.5H33V33.5ZM25 30.5L28.359 27.141C28.5679 26.9321 28.7337 26.6841 28.8467 26.4111C28.9598 26.1381 29.018 25.8455 29.018 25.55C29.018 25.2546 28.9598 24.962 28.8467 24.689C28.7337 24.416 28.5679 24.168 28.359 23.959C28.1501 23.7501 27.902 23.5844 27.629 23.4713C27.3561 23.3582 27.0635 23.3 26.768 23.3C26.4725 23.3 26.1799 23.3582 25.907 23.4713C25.634 23.5844 25.3859 23.7501 25.177 23.959L25 24.136L24.823 23.959C24.6141 23.7501 24.366 23.5844 24.093 23.4713C23.8201 23.3582 23.5275 23.3 23.232 23.3C22.9365 23.3 22.6439 23.3582 22.371 23.4713C22.098 23.5844 21.8499 23.7501 21.641 23.959C21.4321 24.168 21.2663 24.416 21.1533 24.689C21.0402 24.962 20.982 25.2546 20.982 25.55C20.982 25.8455 21.0402 26.1381 21.1533 26.4111C21.2663 26.6841 21.4321 26.9321 21.641 27.141L25 30.5Z" fill="#DD17CA" fill-opacity="0.7"/>
</g>
<defs>
<linearGradient id="paint0_linear_1418_289" x1="25" y1="0.5" x2="25" y2="50.5" gradientUnits="userSpaceOnUse">
<stop stop-color="#D684CE" stop-opacity="0.4"/>
<stop offset="1" stop-color="white" stop-opacity="0"/>
</linearGradient>
<clipPath id="clip0_1418_289">
<rect width="24" height="24" fill="white" transform="translate(13 13.5)"/>
</clipPath>
</defs>
</svg>
