<svg width="50" height="51" viewBox="0 0 50 51" fill="none" xmlns="http://www.w3.org/2000/svg">
<rect y="0.5" width="50" height="50" rx="10" fill="url(#paint0_linear_1418_158)"/>
<g clip-path="url(#clip0_1418_158)">
<path d="M22.33 25H24.5C25.6935 25 26.8381 25.4741 27.682 26.318C28.5259 27.1619 29 28.3065 29 29.5H21.999L22 30.5H30V29.5C29.9968 28.4359 29.6894 27.395 29.114 26.5H32C32.9453 26.4997 33.8712 26.7674 34.6705 27.272C35.4698 27.7766 36.1097 28.4975 36.516 29.351C34.151 32.472 30.322 34.5 26 34.5C23.239 34.5 20.9 33.91 19 32.875V23.571C20.2166 23.7452 21.3655 24.2382 22.33 25ZM17 22.5C17.2449 22.5 17.4813 22.5899 17.6644 22.7527C17.8474 22.9154 17.9643 23.1397 17.993 23.383L18 23.5V32.5C18 32.7652 17.8946 33.0195 17.7071 33.2071C17.5196 33.3946 17.2652 33.5 17 33.5H15C14.7348 33.5 14.4804 33.3946 14.2929 33.2071C14.1054 33.0195 14 32.7652 14 32.5V23.5C14 23.2347 14.1054 22.9804 14.2929 22.7928C14.4804 22.6053 14.7348 22.5 15 22.5H17ZM26.646 17.075L27 17.43L27.354 17.076C27.5858 16.8422 27.8615 16.6565 28.1653 16.5295C28.469 16.4026 28.7949 16.3369 29.1241 16.3362C29.4533 16.3356 29.7795 16.3999 30.0837 16.5256C30.388 16.6513 30.6645 16.8359 30.8973 17.0687C31.13 17.3015 31.3145 17.578 31.4401 17.8824C31.5657 18.1867 31.63 18.5128 31.6292 18.842C31.6285 19.1713 31.5627 19.4971 31.4356 19.8008C31.3086 20.1046 31.1228 20.3802 30.889 20.612L27 24.5L23.11 20.61C22.8762 20.3781 22.6905 20.1024 22.5636 19.7987C22.4366 19.4949 22.3709 19.1691 22.3703 18.8398C22.3696 18.5106 22.434 18.1845 22.5597 17.8802C22.6854 17.5759 22.8699 17.2995 23.1027 17.0667C23.3356 16.8339 23.6121 16.6495 23.9164 16.5238C24.2207 16.3982 24.5469 16.334 24.8761 16.3347C25.2053 16.3355 25.5311 16.4013 25.8349 16.5283C26.1386 16.6553 26.4143 16.8411 26.646 17.075Z" fill="#30C523" fill-opacity="0.7"/>
</g>
<defs>
<linearGradient id="paint0_linear_1418_158" x1="25" y1="0.5" x2="25" y2="50.5" gradientUnits="userSpaceOnUse">
<stop stop-color="#50CB45" stop-opacity="0.4"/>
<stop offset="1" stop-color="white" stop-opacity="0"/>
</linearGradient>
<clipPath id="clip0_1418_158">
<rect width="24" height="24" fill="white" transform="translate(13 13.5)"/>
</clipPath>
</defs>
</svg>
