<svg width="68" height="27" viewBox="0 0 68 27" fill="none" xmlns="http://www.w3.org/2000/svg">
<path d="M2 2C2 2 15.9395 2 18.7274 2C21.5153 2 2 18.2628 2 18.2628V24.3032H18.7274" stroke="#061FFF" stroke-width="4" stroke-linecap="round"/>
<path d="M16.448 15.52C16.448 14.6027 16.6187 13.7973 16.96 13.104C17.312 12.4107 17.7867 11.8773 18.384 11.504C18.9813 11.1307 19.648 10.944 20.384 10.944C21.0133 10.944 21.5627 11.072 22.032 11.328C22.512 11.584 22.88 11.92 23.136 12.336V11.072H25.872V20H23.136V18.736C22.8693 19.152 22.496 19.488 22.016 19.744C21.5467 20 20.9973 20.128 20.368 20.128C19.6427 20.128 18.9813 19.9413 18.384 19.568C17.7867 19.184 17.312 18.6453 16.96 17.952C16.6187 17.248 16.448 16.4373 16.448 15.52ZM23.136 15.536C23.136 14.8533 22.944 14.3147 22.56 13.92C22.1867 13.5253 21.728 13.328 21.184 13.328C20.64 13.328 20.176 13.5253 19.792 13.92C19.4187 14.304 19.232 14.8373 19.232 15.52C19.232 16.2027 19.4187 16.7467 19.792 17.152C20.176 17.5467 20.64 17.744 21.184 17.744C21.728 17.744 22.1867 17.5467 22.56 17.152C22.944 16.7573 23.136 16.2187 23.136 15.536ZM33.4414 10.976C34.4867 10.976 35.3187 11.3173 35.9374 12C36.5667 12.672 36.8814 13.6 36.8814 14.784V20H34.1614V15.152C34.1614 14.5547 34.0067 14.0907 33.6974 13.76C33.388 13.4293 32.972 13.264 32.4494 13.264C31.9267 13.264 31.5107 13.4293 31.2014 13.76C30.892 14.0907 30.7374 14.5547 30.7374 15.152V20H28.0014V11.072H30.7374V12.256C31.0147 11.8613 31.388 11.552 31.8574 11.328C32.3267 11.0933 32.8547 10.976 33.4414 10.976ZM40.3086 10.144C39.8286 10.144 39.434 10.0053 39.1246 9.728C38.826 9.44 38.6766 9.088 38.6766 8.672C38.6766 8.24533 38.826 7.89333 39.1246 7.616C39.434 7.328 39.8286 7.184 40.3086 7.184C40.778 7.184 41.162 7.328 41.4606 7.616C41.77 7.89333 41.9246 8.24533 41.9246 8.672C41.9246 9.088 41.77 9.44 41.4606 9.728C41.162 10.0053 40.778 10.144 40.3086 10.144ZM41.6686 11.072V20H38.9326V11.072H41.6686ZM45.0814 20.128C44.6014 20.128 44.2067 19.9893 43.8974 19.712C43.5987 19.424 43.4494 19.072 43.4494 18.656C43.4494 18.2293 43.5987 17.872 43.8974 17.584C44.2067 17.296 44.6014 17.152 45.0814 17.152C45.5507 17.152 45.9347 17.296 46.2334 17.584C46.5427 17.872 46.6974 18.2293 46.6974 18.656C46.6974 19.072 46.5427 19.424 46.2334 19.712C45.9347 19.9893 45.5507 20.128 45.0814 20.128ZM47.923 15.536C47.923 14.608 48.1097 13.7973 48.483 13.104C48.867 12.4107 49.395 11.8773 50.067 11.504C50.7497 11.1307 51.5283 10.944 52.403 10.944C53.523 10.944 54.4563 11.2373 55.203 11.824C55.9603 12.4107 56.4563 13.2373 56.691 14.304H53.779C53.5337 13.6213 53.059 13.28 52.355 13.28C51.8537 13.28 51.4537 13.4773 51.155 13.872C50.8563 14.256 50.707 14.8107 50.707 15.536C50.707 16.2613 50.8563 16.8213 51.155 17.216C51.4537 17.6 51.8537 17.792 52.355 17.792C53.059 17.792 53.5337 17.4507 53.779 16.768H56.691C56.4563 17.8133 55.9603 18.6347 55.203 19.232C54.4457 19.8293 53.5123 20.128 52.403 20.128C51.5283 20.128 50.7497 19.9413 50.067 19.568C49.395 19.1947 48.867 18.6613 48.483 17.968C48.1097 17.2747 47.923 16.464 47.923 15.536ZM62.3685 20.128C61.4938 20.128 60.7045 19.9413 60.0005 19.568C59.3072 19.1947 58.7578 18.6613 58.3525 17.968C57.9578 17.2747 57.7605 16.464 57.7605 15.536C57.7605 14.6187 57.9632 13.8133 58.3685 13.12C58.7738 12.416 59.3285 11.8773 60.0325 11.504C60.7365 11.1307 61.5258 10.944 62.4005 10.944C63.2752 10.944 64.0645 11.1307 64.7685 11.504C65.4725 11.8773 66.0272 12.416 66.4325 13.12C66.8378 13.8133 67.0405 14.6187 67.0405 15.536C67.0405 16.4533 66.8325 17.264 66.4165 17.968C66.0112 18.6613 65.4512 19.1947 64.7365 19.568C64.0325 19.9413 63.2432 20.128 62.3685 20.128ZM62.3685 17.76C62.8912 17.76 63.3338 17.568 63.6965 17.184C64.0698 16.8 64.2565 16.2507 64.2565 15.536C64.2565 14.8213 64.0752 14.272 63.7125 13.888C63.3605 13.504 62.9232 13.312 62.4005 13.312C61.8672 13.312 61.4245 13.504 61.0725 13.888C60.7205 14.2613 60.5445 14.8107 60.5445 15.536C60.5445 16.2507 60.7152 16.8 61.0565 17.184C61.4085 17.568 61.8458 17.76 62.3685 17.76Z" fill="white"/>
</svg>
