<svg width="167" height="62" viewBox="0 0 167 62" fill="none" xmlns="http://www.w3.org/2000/svg">
<path d="M8 5C8 5 39.9447 5 46.3336 5C52.7226 5 8 42.2688 8 42.2688V56.1115H46.3336" stroke="#061FFF" stroke-width="10" stroke-linecap="round"/>
<path d="M41.1099 34.7333C41.1099 32.6311 41.501 30.7856 42.2833 29.1967C43.0899 27.6078 44.1777 26.3856 45.5466 25.53C46.9155 24.6744 48.4433 24.2467 50.1299 24.2467C51.5721 24.2467 52.831 24.54 53.9066 25.1267C55.0066 25.7133 55.8499 26.4833 56.4366 27.4367V24.54H62.7066V45H56.4366V42.1033C55.8255 43.0567 54.9699 43.8267 53.8699 44.4133C52.7944 45 51.5355 45.2933 50.0933 45.2933C48.431 45.2933 46.9155 44.8656 45.5466 44.01C44.1777 43.13 43.0899 41.8956 42.2833 40.3067C41.501 38.6933 41.1099 36.8356 41.1099 34.7333ZM56.4366 34.77C56.4366 33.2056 55.9966 31.9711 55.1166 31.0667C54.261 30.1622 53.2099 29.71 51.9633 29.71C50.7166 29.71 49.6533 30.1622 48.7733 31.0667C47.9177 31.9467 47.4899 33.1689 47.4899 34.7333C47.4899 36.2978 47.9177 37.5444 48.7733 38.4733C49.6533 39.3778 50.7166 39.83 51.9633 39.83C53.2099 39.83 54.261 39.3778 55.1166 38.4733C55.9966 37.5689 56.4366 36.3344 56.4366 34.77ZM80.0531 24.32C82.4486 24.32 84.3553 25.1022 85.7731 26.6667C87.2153 28.2067 87.9364 30.3333 87.9364 33.0467V45H81.7031V33.89C81.7031 32.5211 81.3486 31.4578 80.6397 30.7C79.9308 29.9422 78.9775 29.5633 77.7797 29.5633C76.582 29.5633 75.6286 29.9422 74.9197 30.7C74.2108 31.4578 73.8564 32.5211 73.8564 33.89V45H67.5864V24.54H73.8564V27.2533C74.492 26.3489 75.3475 25.64 76.4231 25.1267C77.4986 24.5889 78.7086 24.32 80.0531 24.32ZM95.7905 22.4133C94.6905 22.4133 93.7861 22.0956 93.0772 21.46C92.3927 20.8 92.0505 19.9933 92.0505 19.04C92.0505 18.0622 92.3927 17.2556 93.0772 16.62C93.7861 15.96 94.6905 15.63 95.7905 15.63C96.8661 15.63 97.7461 15.96 98.4305 16.62C99.1394 17.2556 99.4939 18.0622 99.4939 19.04C99.4939 19.9933 99.1394 20.8 98.4305 21.46C97.7461 22.0956 96.8661 22.4133 95.7905 22.4133ZM98.9072 24.54V45H92.6372V24.54H98.9072ZM106.728 45.2933C105.628 45.2933 104.724 44.9756 104.015 44.34C103.33 43.68 102.988 42.8733 102.988 41.92C102.988 40.9422 103.33 40.1233 104.015 39.4633C104.724 38.8033 105.628 38.4733 106.728 38.4733C107.804 38.4733 108.684 38.8033 109.368 39.4633C110.077 40.1233 110.431 40.9422 110.431 41.92C110.431 42.8733 110.077 43.68 109.368 44.34C108.684 44.9756 107.804 45.2933 106.728 45.2933ZM113.24 34.77C113.24 32.6433 113.668 30.7856 114.523 29.1967C115.403 27.6078 116.613 26.3856 118.153 25.53C119.718 24.6744 121.502 24.2467 123.507 24.2467C126.073 24.2467 128.212 24.9189 129.923 26.2633C131.659 27.6078 132.796 29.5022 133.333 31.9467H126.66C126.098 30.3822 125.01 29.6 123.397 29.6C122.248 29.6 121.331 30.0522 120.647 30.9567C119.962 31.8367 119.62 33.1078 119.62 34.77C119.62 36.4322 119.962 37.7156 120.647 38.62C121.331 39.5 122.248 39.94 123.397 39.94C125.01 39.94 126.098 39.1578 126.66 37.5933H133.333C132.796 39.9889 131.659 41.8711 129.923 43.24C128.188 44.6089 126.049 45.2933 123.507 45.2933C121.502 45.2933 119.718 44.8656 118.153 44.01C116.613 43.1544 115.403 41.9322 114.523 40.3433C113.668 38.7544 113.24 36.8967 113.24 34.77ZM146.344 45.2933C144.34 45.2933 142.531 44.8656 140.918 44.01C139.329 43.1544 138.07 41.9322 137.141 40.3433C136.237 38.7544 135.784 36.8967 135.784 34.77C135.784 32.6678 136.249 30.8222 137.178 29.2333C138.107 27.62 139.378 26.3856 140.991 25.53C142.604 24.6744 144.413 24.2467 146.418 24.2467C148.422 24.2467 150.231 24.6744 151.844 25.53C153.458 26.3856 154.729 27.62 155.658 29.2333C156.587 30.8222 157.051 32.6678 157.051 34.77C157.051 36.8722 156.574 38.73 155.621 40.3433C154.692 41.9322 153.409 43.1544 151.771 44.01C150.158 44.8656 148.349 45.2933 146.344 45.2933ZM146.344 39.8667C147.542 39.8667 148.557 39.4267 149.388 38.5467C150.243 37.6667 150.671 36.4078 150.671 34.77C150.671 33.1322 150.256 31.8733 149.424 30.9933C148.618 30.1133 147.616 29.6733 146.418 29.6733C145.196 29.6733 144.181 30.1133 143.374 30.9933C142.568 31.8489 142.164 33.1078 142.164 34.77C142.164 36.4078 142.556 37.6667 143.338 38.5467C144.144 39.4267 145.147 39.8667 146.344 39.8667Z" fill="black"/>
</svg>
