<svg width="50" height="51" viewBox="0 0 50 51" fill="none" xmlns="http://www.w3.org/2000/svg">
<circle cx="25" cy="25.5" r="25" fill="url(#paint0_linear_1418_8)"/>
<g clip-path="url(#clip0_1418_8)">
<path d="M35 19.5H28C26.4087 19.5 24.8826 20.1321 23.7574 21.2574C22.6321 22.3826 22 23.9087 22 25.5C22 27.0913 22.6321 28.6174 23.7574 29.7426C24.8826 30.8679 26.4087 31.5 28 31.5H35V33.5C35 33.7652 34.8946 34.0196 34.7071 34.2071C34.5196 34.3946 34.2652 34.5 34 34.5H16C15.7348 34.5 15.4804 34.3946 15.2929 34.2071C15.1054 34.0196 15 33.7652 15 33.5V17.5C15 17.2348 15.1054 16.9804 15.2929 16.7929C15.4804 16.6054 15.7348 16.5 16 16.5H34C34.2652 16.5 34.5196 16.6054 34.7071 16.7929C34.8946 16.9804 35 17.2348 35 17.5V19.5ZM28 21.5H36V29.5H28C26.9391 29.5 25.9217 29.0786 25.1716 28.3284C24.4214 27.5783 24 26.5609 24 25.5C24 24.4391 24.4214 23.4217 25.1716 22.6716C25.9217 21.9214 26.9391 21.5 28 21.5ZM28 24.5V26.5H31V24.5H28Z" fill="#30C523" fill-opacity="0.7"/>
</g>
<defs>
<linearGradient id="paint0_linear_1418_8" x1="25" y1="0.5" x2="25" y2="50.5" gradientUnits="userSpaceOnUse">
<stop stop-color="#50CB45" stop-opacity="0.4"/>
<stop offset="1" stop-color="#CBDAD9" stop-opacity="0"/>
</linearGradient>
<clipPath id="clip0_1418_8">
<rect width="24" height="24" fill="white" transform="translate(13 13.5)"/>
</clipPath>
</defs>
</svg>
