<svg width="198" height="41" viewBox="0 0 198 41" fill="none" xmlns="http://www.w3.org/2000/svg">
<path d="M180.398 22.795L183.968 12.4058L187.537 22.795H180.398ZM187.66 6.50829H180.275L169.935 34.7271H176.336L178.675 27.8352H189.23L191.599 34.7271H198L187.66 6.50829ZM135.5 29.7896C131.315 29.7896 127.96 25.6065 127.96 20.4291C127.96 15.2517 131.345 11.0686 135.5 11.0686C139.654 11.0686 143.039 15.2517 143.039 20.4291C143.07 25.6065 139.685 29.7896 135.5 29.7896ZM135.5 5.51395C128.114 5.51395 122.114 12.2 122.114 20.4291C122.114 28.6581 128.114 35.3443 135.5 35.3443C142.885 35.3443 148.886 28.6924 148.886 20.4634C148.886 12.2 142.885 5.51395 135.5 5.51395ZM82.7239 29.7896C78.5695 29.7896 75.1845 25.6065 75.1845 20.4291C75.1845 15.2517 78.5695 11.0686 82.7239 11.0686C86.909 11.0686 90.2941 15.2517 90.2941 20.4291C90.2941 25.6065 86.909 29.7896 82.7239 29.7896ZM82.7239 5.51395C75.3383 5.51395 69.3684 12.2 69.3684 20.4291C69.3684 28.6581 75.3383 35.3443 82.7239 35.3443C90.1095 35.3443 96.1102 28.6924 96.1102 20.4634C96.1102 12.2 90.1095 5.51395 82.7239 5.51395ZM115.805 6.50829L109.25 17.9261L102.696 6.50829H96.2949L106.45 24.2007V34.7271H112.081V24.2007L122.237 6.50829C122.206 6.50829 115.805 6.50829 115.805 6.50829ZM171.289 6.50829H149.656V11.9257H157.687V34.7271H163.319V11.8915H171.289V6.50829ZM46.5347 11.8915H54.5665V34.6928H60.198V11.8915H68.1682V6.50829H46.5039V11.8915H46.5347Z" fill="#A4A4A4" fill-opacity="0.36"/>
<path d="M40.399 0.613129H0V40.3869H40.399V0.613129Z" fill="#A4A4A4" fill-opacity="0.36"/>
<path d="M26.9261 11.8531C25.0462 11.2554 22.7158 10.9084 20.1897 10.9084C17.6635 10.9084 15.3332 11.2554 13.4533 11.8531C8.45968 13.434 5.03271 16.7116 5.03271 20.4904C5.03271 25.8115 11.8083 30.1301 20.1701 30.1301C28.5319 30.1301 35.3075 25.8115 35.3075 20.4904C35.3466 16.7116 31.9197 13.434 26.9261 11.8531ZM20.1897 26.0043C18.9364 26.0043 17.9181 23.5944 17.8593 20.5482C18.6035 20.606 19.3868 20.6446 20.1897 20.6446C20.9926 20.6446 21.7563 20.606 22.52 20.5482C22.4613 23.5751 21.443 26.0043 20.1897 26.0043ZM18.016 18.1575C18.3489 16.0175 19.191 14.5137 20.1897 14.5137C21.1688 14.5137 22.0109 16.0175 22.3634 18.1575C21.678 18.2154 20.9338 18.2539 20.1897 18.2539C19.4455 18.2539 18.721 18.2346 18.016 18.1575ZM23.695 18.0033C23.1858 14.6486 21.815 12.258 20.1897 12.258C18.5643 12.258 17.1935 14.6486 16.6844 18.0033C13.6099 17.5213 11.4558 16.4609 11.4558 15.2078C11.4558 13.5112 15.3528 12.1423 20.1701 12.1423C24.9874 12.1423 28.8844 13.5112 28.8844 15.2078C28.9235 16.4609 26.7695 17.5406 23.695 18.0033ZM7.26514 20.1433C7.26514 18.5046 7.91136 16.9815 9.00799 15.6705C8.98841 15.7669 8.98841 15.8633 8.98841 15.9404C8.98841 18.0033 12.1216 19.7385 16.4886 20.3747C16.4886 20.5289 16.4886 20.6832 16.4886 20.8374C16.4886 24.6547 17.5656 27.8937 19.0539 29.0119C12.435 28.6263 7.26514 24.809 7.26514 20.1433ZM21.3451 29.0119C22.8333 27.8937 23.9104 24.6547 23.9104 20.8374C23.9104 20.6832 23.9104 20.5289 23.9104 20.3747C28.2773 19.7385 31.4105 17.984 31.4105 15.9404C31.4105 15.844 31.4105 15.7476 31.391 15.6705C32.5072 16.9815 33.1338 18.5238 33.1338 20.1433C33.1338 24.809 27.9444 28.6263 21.3451 29.0119Z" fill="white"/>
</svg>
